<?xml version="1.0"?>
<svg xmlns="http://www.w3.org/2000/svg" version="1.1" width="894pt" height="596.25pt" viewBox="-126.60000801086426 -41.02499771118164 894 596.25" preserveAspectRatio="none" xmlns:xlink="http://www.w3.org/1999/xlink">
  <defs>
  </defs>
  <path d="M178.79998779296875,38.69999694824219 L188.09999084472656,38.69999694824219 " stroke="#6E6E6E" fill="none" stroke-width="1" stroke-opacity="1" />
  <path d="M193.79998779296875,38.69999694824219 L188.0999755859375,40.91999816894531 L188.0999755859375,36.47999954223633 L193.79998779296875,38.69999694824219 " stroke="none" fill="#6E6E6E" fill-rule="evenodd" stroke-width="0" fill-opacity="1" />
  <path d="M193.79998779296875,38.69999694824219 L188.0999755859375,40.91999816894531 L188.0999755859375,36.47999954223633 L193.79998779296875,38.69999694824219 " stroke="#6E6E6E" fill="none" stroke-width="1" stroke-opacity="1" />
  <path d="M178.79998779296875,407.0999755859375 L202.7408905029297,372.81964111328125 " stroke="#6E6E6E" fill="none" stroke-width="1" stroke-opacity="1" />
  <path d="M206.00454711914062,368.146484375 L204.5609588623047,374.09075927734375 L200.92080688476562,371.54852294921875 L206.00454711914062,368.146484375 " stroke="none" fill="#6E6E6E" fill-rule="evenodd" stroke-width="0" fill-opacity="1" />
  <path d="M206.00454711914062,368.146484375 L204.5609588623047,374.09075927734375 L200.92080688476562,371.54852294921875 L206.00454711914062,368.146484375 " stroke="#6E6E6E" fill="none" stroke-width="1" stroke-opacity="1" />
  <path d="M178.79998779296875,413.0999755859375 L188.09999084472656,413.0999755859375 " stroke="#6E6E6E" fill="none" stroke-width="1" stroke-opacity="1" />
  <path d="M193.79998779296875,413.0999755859375 L188.0999755859375,415.3199768066406 L188.0999755859375,410.8800048828125 L193.79998779296875,413.0999755859375 " stroke="none" fill="#6E6E6E" fill-rule="evenodd" stroke-width="0" fill-opacity="1" />
  <path d="M193.79998779296875,413.0999755859375 L188.0999755859375,415.3199768066406 L188.0999755859375,410.8800048828125 L193.79998779296875,413.0999755859375 " stroke="#6E6E6E" fill="none" stroke-width="1" stroke-opacity="1" />
  <path d="M178.79998779296875,419.0999755859375 L202.7408905029297,453.3803405761719 " stroke="#6E6E6E" fill="none" stroke-width="1" stroke-opacity="1" />
  <path d="M206.0045623779297,458.05352783203125 L200.9208221435547,454.6514587402344 L204.5609588623047,452.1092529296875 L206.0045623779297,458.05352783203125 " stroke="none" fill="#6E6E6E" fill-rule="evenodd" stroke-width="0" fill-opacity="1" />
  <path d="M206.0045623779297,458.05352783203125 L200.9208221435547,454.6514587402344 L204.5609588623047,452.1092529296875 L206.0045623779297,458.05352783203125 " stroke="#6E6E6E" fill="none" stroke-width="1" stroke-opacity="1" />
  <path d="M178.79998779296875,219.90000915527344 L202.7408905029297,185.61964416503906 " stroke="#6E6E6E" fill="none" stroke-width="1" stroke-opacity="1" />
  <path d="M206.00454711914062,180.94647216796875 L204.5609588623047,186.8907470703125 L200.92080688476562,184.34852600097656 L206.00454711914062,180.94647216796875 " stroke="none" fill="#6E6E6E" fill-rule="evenodd" stroke-width="0" fill-opacity="1" />
  <path d="M206.00454711914062,180.94647216796875 L204.5609588623047,186.8907470703125 L200.92080688476562,184.34852600097656 L206.00454711914062,180.94647216796875 " stroke="#6E6E6E" fill="none" stroke-width="1" stroke-opacity="1" />
  <path d="M178.79998779296875,225.90000915527344 L188.09999084472656,225.90000915527344 " stroke="#6E6E6E" fill="none" stroke-width="1" stroke-opacity="1" />
  <path d="M193.79998779296875,225.89999389648438 L188.0999755859375,228.1199951171875 L188.0999755859375,223.6800079345703 L193.79998779296875,225.89999389648438 " stroke="none" fill="#6E6E6E" fill-rule="evenodd" stroke-width="0" fill-opacity="1" />
  <path d="M193.79998779296875,225.89999389648438 L188.0999755859375,228.1199951171875 L188.0999755859375,223.6800079345703 L193.79998779296875,225.89999389648438 " stroke="#6E6E6E" fill="none" stroke-width="1" stroke-opacity="1" />
  <path d="M178.79998779296875,231.90000915527344 L202.7408905029297,266.1803283691406 " stroke="#6E6E6E" fill="none" stroke-width="1" stroke-opacity="1" />
  <path d="M206.0045623779297,270.853515625 L200.9208221435547,267.4514465332031 L204.5609588623047,264.90924072265625 L206.0045623779297,270.853515625 " stroke="none" fill="#6E6E6E" fill-rule="evenodd" stroke-width="0" fill-opacity="1" />
  <path d="M206.0045623779297,270.853515625 L200.9208221435547,267.4514465332031 L204.5609588623047,264.90924072265625 L206.0045623779297,270.853515625 " stroke="#6E6E6E" fill="none" stroke-width="1" stroke-opacity="1" />
  <path d="M89.39999389648438,413.0999755859375 L98.69998931884766,413.0999755859375 " stroke="#6E6E6E" fill="none" stroke-width="1" stroke-opacity="1" />
  <path d="M104.39999389648438,413.0999755859375 L98.69998931884766,415.3199768066406 L98.69998931884766,410.8800048828125 L104.39999389648438,413.0999755859375 " stroke="none" fill="#6E6E6E" fill-rule="evenodd" stroke-width="0" fill-opacity="1" />
  <path d="M104.39999389648438,413.0999755859375 L98.69998931884766,415.3199768066406 L98.69998931884766,410.8800048828125 L104.39999389648438,413.0999755859375 " stroke="#6E6E6E" fill="none" stroke-width="1" stroke-opacity="1" />
  <path d="M89.39999389648438,225.90000915527344 L98.69998931884766,225.90000915527344 " stroke="#6E6E6E" fill="none" stroke-width="1" stroke-opacity="1" />
  <path d="M104.39999389648438,225.89999389648438 L98.69998931884766,228.1199951171875 L98.69998931884766,223.6800079345703 L104.39999389648438,225.89999389648438 " stroke="none" fill="#6E6E6E" fill-rule="evenodd" stroke-width="0" fill-opacity="1" />
  <path d="M104.39999389648438,225.89999389648438 L98.69998931884766,228.1199951171875 L98.69998931884766,223.6800079345703 L104.39999389648438,225.89999389648438 " stroke="#6E6E6E" fill="none" stroke-width="1" stroke-opacity="1" />
  <path d="M89.39999389648438,38.69999694824219 L98.69998931884766,38.69999694824219 " stroke="#6E6E6E" fill="none" stroke-width="1" stroke-opacity="1" />
  <path d="M104.39999389648438,38.69999694824219 L98.69998931884766,40.91999816894531 L98.69998931884766,36.47999954223633 L104.39999389648438,38.69999694824219 " stroke="none" fill="#6E6E6E" fill-rule="evenodd" stroke-width="0" fill-opacity="1" />
  <path d="M104.39999389648438,38.69999694824219 L98.69998931884766,40.91999816894531 L98.69998931884766,36.47999954223633 L104.39999389648438,38.69999694824219 " stroke="#6E6E6E" fill="none" stroke-width="1" stroke-opacity="1" />
  <path d="M357.5999755859375,38.69999694824219 L366.89996337890625,38.69999694824219 " stroke="#6E6E6E" fill="none" stroke-width="1" stroke-opacity="1" />
  <path d="M372.5999755859375,38.69999694824219 L366.89996337890625,40.91999816894531 L366.89996337890625,36.47999954223633 L372.5999755859375,38.69999694824219 " stroke="none" fill="#6E6E6E" fill-rule="evenodd" stroke-width="0" fill-opacity="1" />
  <path d="M372.5999755859375,38.69999694824219 L366.89996337890625,40.91999816894531 L366.89996337890625,36.47999954223633 L372.5999755859375,38.69999694824219 " stroke="#6E6E6E" fill="none" stroke-width="1" stroke-opacity="1" />
  <path d="M352.9606018066406,327.9731140136719 L380.1305236816406,309.0088806152344 " stroke="#6E6E6E" fill="none" stroke-width="1" stroke-opacity="1" />
  <path d="M384.8045349121094,305.7464599609375 L381.401123046875,310.8293151855469 L378.85986328125,307.1884765625 L384.8045349121094,305.7464599609375 " stroke="none" fill="#6E6E6E" fill-rule="evenodd" stroke-width="0" fill-opacity="1" />
  <path d="M384.8045349121094,305.7464599609375 L381.401123046875,310.8293151855469 L378.85986328125,307.1884765625 L384.8045349121094,305.7464599609375 " stroke="#6E6E6E" fill="none" stroke-width="1" stroke-opacity="1" />
  <path d="M357.5999755859375,163.5 L366.89996337890625,163.5 " stroke="#6E6E6E" fill="none" stroke-width="1" stroke-opacity="1" />
  <path d="M372.5999755859375,163.49998474121094 L366.89996337890625,165.71998596191406 L366.89996337890625,161.27999877929688 L372.5999755859375,163.49998474121094 " stroke="none" fill="#6E6E6E" fill-rule="evenodd" stroke-width="0" fill-opacity="1" />
  <path d="M372.5999755859375,163.49998474121094 L366.89996337890625,165.71998596191406 L366.89996337890625,161.27999877929688 L372.5999755859375,163.49998474121094 " stroke="#6E6E6E" fill="none" stroke-width="1" stroke-opacity="1" />
  <path d="M268.1999816894531,38.69999694824219 L277.5,38.69999694824219 " stroke="#6E6E6E" fill="none" stroke-width="1" stroke-opacity="1" />
  <path d="M283.1999816894531,38.69999694824219 L277.4999694824219,40.91999816894531 L277.4999694824219,36.47999954223633 L283.1999816894531,38.69999694824219 " stroke="none" fill="#6E6E6E" fill-rule="evenodd" stroke-width="0" fill-opacity="1" />
  <path d="M283.1999816894531,38.69999694824219 L277.4999694824219,40.91999816894531 L277.4999694824219,36.47999954223633 L283.1999816894531,38.69999694824219 " stroke="#6E6E6E" fill="none" stroke-width="1" stroke-opacity="1" />
  <path d="M268.1999816894531,350.6999816894531 L277.5,350.6999816894531 " stroke="#6E6E6E" fill="none" stroke-width="1" stroke-opacity="1" />
  <path d="M283.1999816894531,350.6999816894531 L277.4999694824219,352.91998291015625 L277.4999694824219,348.4800109863281 L283.1999816894531,350.6999816894531 " stroke="none" fill="#6E6E6E" fill-rule="evenodd" stroke-width="0" fill-opacity="1" />
  <path d="M283.1999816894531,350.6999816894531 L277.4999694824219,352.91998291015625 L277.4999694824219,348.4800109863281 L283.1999816894531,350.6999816894531 " stroke="#6E6E6E" fill="none" stroke-width="1" stroke-opacity="1" />
  <path d="M268.1999816894531,163.5 L277.5,163.5 " stroke="#6E6E6E" fill="none" stroke-width="1" stroke-opacity="1" />
  <path d="M283.1999816894531,163.49998474121094 L277.4999694824219,165.71998596191406 L277.4999694824219,161.27999877929688 L283.1999816894531,163.49998474121094 " stroke="none" fill="#6E6E6E" fill-rule="evenodd" stroke-width="0" fill-opacity="1" />
  <path d="M283.1999816894531,163.49998474121094 L277.4999694824219,165.71998596191406 L277.4999694824219,161.27999877929688 L283.1999816894531,163.49998474121094 " stroke="#6E6E6E" fill="none" stroke-width="1" stroke-opacity="1" />
  <path d="M536.3999633789062,101.0999984741211 L545.699951171875,101.0999984741211 " stroke="#6E6E6E" fill="none" stroke-width="1" stroke-opacity="1" />
  <path d="M551.3999633789062,101.09999084472656 L545.699951171875,103.31999206542969 L545.699951171875,98.87999725341797 L551.3999633789062,101.09999084472656 " stroke="none" fill="#6E6E6E" fill-rule="evenodd" stroke-width="0" fill-opacity="1" />
  <path d="M551.3999633789062,101.09999084472656 L545.699951171875,103.31999206542969 L545.699951171875,98.87999725341797 L551.3999633789062,101.09999084472656 " stroke="#6E6E6E" fill="none" stroke-width="1" stroke-opacity="1" />
  <path d="M434.79541015625,56.14647674560547 L458.5606384277344,87.5545654296875 " stroke="#6E6E6E" fill="none" stroke-width="1" stroke-opacity="1" />
  <path d="M462,92.09999084472656 L456.7903137207031,88.89409637451172 L460.3309631347656,86.21502685546875 L462,92.09999084472656 " stroke="none" fill="#6E6E6E" fill-rule="evenodd" stroke-width="0" fill-opacity="1" />
  <path d="M462,92.09999084472656 L456.7903137207031,88.89409637451172 L460.3309631347656,86.21502685546875 L462,92.09999084472656 " stroke="#6E6E6E" fill="none" stroke-width="1" stroke-opacity="1" />
  <path d="M434.79541015625,146.05352783203125 L458.8987731933594,108.88252258300781 " stroke="#6E6E6E" fill="none" stroke-width="1" stroke-opacity="1" />
  <path d="M461.9999694824219,104.0999984741211 L460.7614440917969,110.0903549194336 L457.0361022949219,107.6746826171875 L461.9999694824219,104.0999984741211 " stroke="none" fill="#6E6E6E" fill-rule="evenodd" stroke-width="0" fill-opacity="1" />
  <path d="M461.9999694824219,104.0999984741211 L460.7614440917969,110.0903549194336 L457.0361022949219,107.6746826171875 L461.9999694824219,104.0999984741211 " stroke="#6E6E6E" fill="none" stroke-width="1" stroke-opacity="1" />
  <path d="M420.578369140625,265.7304382324219 L460.5339660644531,115.60823822021484 " stroke="#6E6E6E" fill="none" stroke-width="1" stroke-opacity="1" />
  <path d="M461.9999694824219,110.0999984741211 L462.67926025390625,116.1792221069336 L458.3886413574219,115.0372543334961 L461.9999694824219,110.0999984741211 " stroke="none" fill="#6E6E6E" fill-rule="evenodd" stroke-width="0" fill-opacity="1" />
  <path d="M461.9999694824219,110.0999984741211 L462.67926025390625,116.1792221069336 L458.3886413574219,115.0372543334961 L461.9999694824219,110.0999984741211 " stroke="#6E6E6E" fill="none" stroke-width="1" stroke-opacity="1" />
  <path d="M447,101.0999984741211 L456.41064453125,99.21785736083984 " stroke="#6E6E6E" fill="none" stroke-width="1" stroke-opacity="1" />
  <path d="M462,98.0999984741211 L456.8460388183594,101.39474487304688 L455.9753112792969,97.04096984863281 L462,98.0999984741211 " stroke="none" fill="#6E6E6E" fill-rule="evenodd" stroke-width="0" fill-opacity="1" />
  <path d="M462,98.0999984741211 L456.8460388183594,101.39474487304688 L455.9753112792969,97.04096984863281 L462,98.0999984741211 " stroke="#6E6E6E" fill="none" stroke-width="1" stroke-opacity="1" />
  <path d="M89.39998626708984,38.69999313354492 C89.39998626708984,51.78913879394531 72.74497985839844,62.399993896484375 52.20001220703125,62.39999771118164 C31.655027389526367,62.400001525878906 15.000014305114746,51.78915786743164 14.99999713897705,38.70001220703125 L14.999994277954102,38.700016021728516 C14.999977111816406,25.610868453979492 31.65497398376465,15.000008583068848 52.1999626159668,15 C72.74494934082031,14.99998950958252 89.39996337890625,25.61083221435547 89.39998626708984,38.69999694824219 C89.39998626708984,38.69999694824219 89.39998626708984,38.69999694824219 89.39998626708984,38.69999694824219 " stroke="none" fill="#70AECC" fill-rule="evenodd" stroke-width="0" fill-opacity="1" />
  <text x="25.381689071655273" y="35.284881591796875" dx="0" dy="0" font-family="Segoe UI" font-size="8.249999754130847pt" fill="#000000" style="text-anchor:start" transform="matrix(0.750000 0.000000 0.000000 0.750000 15 15)">elevation</text>
  <path d="M89.39998626708984,38.69999313354492 C89.39998626708984,51.78913879394531 72.74497985839844,62.399993896484375 52.20001220703125,62.39999771118164 C31.655027389526367,62.400001525878906 15.000014305114746,51.78915786743164 14.99999713897705,38.70001220703125 L14.999994277954102,38.700016021728516 C14.999977111816406,25.610868453979492 31.65497398376465,15.000008583068848 52.1999626159668,15 C72.74494934082031,14.99998950958252 89.39996337890625,25.61083221435547 89.39998626708984,38.69999694824219 C89.39998626708984,38.69999694824219 89.39998626708984,38.69999694824219 89.39998626708984,38.69999694824219 " stroke="none" fill="none" stroke-width="0.75" stroke-opacity="0" />
  <path d="M89.39998626708984,413.0999755859375 C89.39998626708984,426.1891174316406 72.74497985839844,436.79998779296875 52.20001220703125,436.79998779296875 C31.655027389526367,436.79998779296875 15.000014305114746,426.18914794921875 14.99999713897705,413.1000061035156 L14.999994277954102,413.1000061035156 C14.999977111816406,400.0108337402344 31.65497398376465,389.3999938964844 52.1999626159668,389.3999938964844 C72.74494934082031,389.39996337890625 89.39996337890625,400.01080322265625 89.39998626708984,413.0999755859375 C89.39998626708984,413.0999755859375 89.39998626708984,413.0999755859375 89.39998626708984,413.0999755859375 " stroke="none" fill="#70AECC" fill-rule="evenodd" stroke-width="0" fill-opacity="1" />
  <text x="28.044189453125" y="35.284881591796875" dx="0" dy="0" font-family="Segoe UI" font-size="8.249999754130847pt" fill="#000000" style="text-anchor:start" transform="matrix(0.750000 0.000000 0.000000 0.750000 15 389.3999938964844)">rec_sites</text>
  <path d="M89.39998626708984,413.0999755859375 C89.39998626708984,426.1891174316406 72.74497985839844,436.79998779296875 52.20001220703125,436.79998779296875 C31.655027389526367,436.79998779296875 15.000014305114746,426.18914794921875 14.99999713897705,413.1000061035156 L14.999994277954102,413.1000061035156 C14.999977111816406,400.0108337402344 31.65497398376465,389.3999938964844 52.1999626159668,389.3999938964844 C72.74494934082031,389.39996337890625 89.39996337890625,400.01080322265625 89.39998626708984,413.0999755859375 C89.39998626708984,413.0999755859375 89.39998626708984,413.0999755859375 89.39998626708984,413.0999755859375 " stroke="none" fill="none" stroke-width="0.75" stroke-opacity="0" />
  <path d="M89.39998626708984,225.8999786376953 C89.39998626708984,238.9891357421875 72.74497985839844,249.59999084472656 52.20001220703125,249.59999084472656 C31.655027389526367,249.59999084472656 15.000014305114746,238.98915100097656 14.99999713897705,225.90000915527344 L14.999994277954102,225.90000915527344 C14.999977111816406,212.81085205078125 31.65497398376465,202.1999969482422 52.1999626159668,202.1999969482422 C72.74494934082031,202.19998168945312 89.39996337890625,212.81082153320312 89.39998626708984,225.89999389648438 C89.39998626708984,225.89999389648438 89.39998626708984,225.89999389648438 89.39998626708984,225.89999389648438 " stroke="none" fill="#70AECC" fill-rule="evenodd" stroke-width="0" fill-opacity="1" />
  <text x="29.876190185546875" y="35.284881591796875" dx="0" dy="0" font-family="Segoe UI" font-size="8.249999754130847pt" fill="#000000" style="text-anchor:start" transform="matrix(0.750000 0.000000 0.000000 0.750000 15 202.1999969482422)">schools</text>
  <path d="M89.39998626708984,225.8999786376953 C89.39998626708984,238.9891357421875 72.74497985839844,249.59999084472656 52.20001220703125,249.59999084472656 C31.655027389526367,249.59999084472656 15.000014305114746,238.98915100097656 14.99999713897705,225.90000915527344 L14.999994277954102,225.90000915527344 C14.999977111816406,212.81085205078125 31.65497398376465,202.1999969482422 52.1999626159668,202.1999969482422 C72.74494934082031,202.19998168945312 89.39996337890625,212.81082153320312 89.39998626708984,225.89999389648438 C89.39998626708984,225.89999389648438 89.39998626708984,225.89999389648438 89.39998626708984,225.89999389648438 " stroke="none" fill="none" stroke-width="0.75" stroke-opacity="0" />
  <path d="M112.9039306640625,15 L170.29605102539062,15 L170.29603576660156,15 C174.99261474609375,14.999992370605469 178.7999725341797,18.807327270507812 178.7999725341797,23.50393295288086 C178.7999725341797,23.503934860229492 178.7999725341797,23.503936767578125 178.7999725341797,23.503938674926758 L178.79998779296875,23.503936767578125 L178.79998779296875,53.89606475830078 L178.7999725341797,53.89605712890625 C178.7999725341797,58.5926513671875 174.99264526367188,62.399993896484375 170.29605102539062,62.39999771118164 L170.29605102539062,62.39999771118164 L112.9039306640625,62.39999771118164 L112.9039306640625,62.39999771118164 C108.20733642578125,62.39999771118164 104.39999389648438,58.59265899658203 104.39999389648438,53.89606475830078 L104.39999389648438,23.503936767578125 L104.39998626708984,23.50394058227539 C104.39998626708984,18.80734634399414 108.20732116699219,15.00000286102295 112.90391540527344,14.999999046325684 " stroke="none" fill="#F2E279" fill-rule="evenodd" stroke-width="0" fill-opacity="1" />
  <text x="33.801021575927734" y="35.284881591796875" dx="0" dy="0" font-family="Segoe UI" font-size="8.249999754130847pt" fill="#000000" style="text-anchor:start" transform="matrix(0.750000 0.000000 0.000000 0.750000 104.39999389648438 15)">Slope</text>
  <path d="M112.9039306640625,15 L170.29605102539062,15 L170.29603576660156,15 C174.99261474609375,14.999992370605469 178.7999725341797,18.807327270507812 178.7999725341797,23.50393295288086 C178.7999725341797,23.503934860229492 178.7999725341797,23.503936767578125 178.7999725341797,23.503938674926758 L178.79998779296875,23.503936767578125 L178.79998779296875,53.89606475830078 L178.7999725341797,53.89605712890625 C178.7999725341797,58.5926513671875 174.99264526367188,62.399993896484375 170.29605102539062,62.39999771118164 L170.29605102539062,62.39999771118164 L112.9039306640625,62.39999771118164 L112.9039306640625,62.39999771118164 C108.20733642578125,62.39999771118164 104.39999389648438,58.59265899658203 104.39999389648438,53.89606475830078 L104.39999389648438,23.503936767578125 L104.39998626708984,23.50394058227539 C104.39998626708984,18.80734634399414 108.20732116699219,15.00000286102295 112.90391540527344,14.999999046325684 " stroke="none" fill="none" stroke-width="0.75" stroke-opacity="0" />
  <path d="M268.199951171875,38.69999313354492 C268.199951171875,51.78913879394531 251.5449676513672,62.399993896484375 231,62.39999771118164 C210.4550018310547,62.400001525878906 193.79998779296875,51.78915786743164 193.7999725341797,38.70001220703125 L193.7999725341797,38.700016021728516 C193.79995727539062,25.610868453979492 210.4549560546875,15.000008583068848 230.99993896484375,15 C251.54493713378906,14.99998950958252 268.199951171875,25.61083221435547 268.199951171875,38.69999694824219 C268.199951171875,38.69999694824219 268.199951171875,38.69999694824219 268.199951171875,38.69999694824219 " stroke="none" fill="#83CC7C" fill-rule="evenodd" stroke-width="0" fill-opacity="1" />
  <text x="14.96102237701416" y="35.284881591796875" dx="0" dy="0" font-family="Segoe UI" font-size="8.249999754130847pt" fill="#000000" style="text-anchor:start" transform="matrix(0.750000 0.000000 0.000000 0.750000 193.79998779296875 15)">Slope Output</text>
  <path d="M268.199951171875,38.69999313354492 C268.199951171875,51.78913879394531 251.5449676513672,62.399993896484375 231,62.39999771118164 C210.4550018310547,62.400001525878906 193.79998779296875,51.78915786743164 193.7999725341797,38.70001220703125 L193.7999725341797,38.700016021728516 C193.79995727539062,25.610868453979492 210.4549560546875,15.000008583068848 230.99993896484375,15 C251.54493713378906,14.99998950958252 268.199951171875,25.61083221435547 268.199951171875,38.69999694824219 C268.199951171875,38.69999694824219 268.199951171875,38.69999694824219 268.199951171875,38.69999694824219 " stroke="none" fill="none" stroke-width="0.75" stroke-opacity="0" />
  <path d="M112.9039306640625,389.3999938964844 L170.29605102539062,389.3999938964844 L170.29603576660156,389.3999938964844 C174.99261474609375,389.39996337890625 178.7999725341797,393.2073059082031 178.7999725341797,397.9039001464844 C178.7999725341797,397.9039001464844 178.7999725341797,397.9039306640625 178.7999725341797,397.9039306640625 L178.79998779296875,397.9039306640625 L178.79998779296875,428.2960510253906 L178.7999725341797,428.2960510253906 C178.7999725341797,432.9926452636719 174.99264526367188,436.79998779296875 170.29605102539062,436.79998779296875 L170.29605102539062,436.79998779296875 L112.9039306640625,436.79998779296875 L112.9039306640625,436.79998779296875 C108.20733642578125,436.79998779296875 104.39999389648438,432.9926452636719 104.39999389648438,428.2960510253906 L104.39999389648438,397.9039306640625 L104.39998626708984,397.9039306640625 C104.39998626708984,393.20733642578125 108.20732116699219,389.3999938964844 112.90391540527344,389.39996337890625 " stroke="none" fill="#F2E279" fill-rule="evenodd" stroke-width="0" fill-opacity="1" />
  <text x="2.1785223484039307" y="35.284881591796875" dx="0" dy="0" font-family="Segoe UI" font-size="8.249999754130847pt" fill="#000000" style="text-anchor:start" transform="matrix(0.750000 0.000000 0.000000 0.750000 104.39999389648438 389.3999938964844)">Euclidean Distance</text>
  <path d="M112.9039306640625,389.3999938964844 L170.29605102539062,389.3999938964844 L170.29603576660156,389.3999938964844 C174.99261474609375,389.39996337890625 178.7999725341797,393.2073059082031 178.7999725341797,397.9039001464844 C178.7999725341797,397.9039001464844 178.7999725341797,397.9039306640625 178.7999725341797,397.9039306640625 L178.79998779296875,397.9039306640625 L178.79998779296875,428.2960510253906 L178.7999725341797,428.2960510253906 C178.7999725341797,432.9926452636719 174.99264526367188,436.79998779296875 170.29605102539062,436.79998779296875 L170.29605102539062,436.79998779296875 L112.9039306640625,436.79998779296875 L112.9039306640625,436.79998779296875 C108.20733642578125,436.79998779296875 104.39999389648438,432.9926452636719 104.39999389648438,428.2960510253906 L104.39999389648438,397.9039306640625 L104.39998626708984,397.9039306640625 C104.39998626708984,393.20733642578125 108.20732116699219,389.3999938964844 112.90391540527344,389.39996337890625 " stroke="none" fill="none" stroke-width="0.75" stroke-opacity="0" />
  <path d="M268.199951171875,350.6999816894531 C268.199951171875,363.78912353515625 251.5449676513672,374.3999938964844 231,374.3999938964844 C210.4550018310547,374.3999938964844 193.79998779296875,363.7891540527344 193.7999725341797,350.70001220703125 L193.7999725341797,350.70001220703125 C193.79995727539062,337.61083984375 210.4549560546875,327 230.99993896484375,327 C251.54493713378906,326.9999694824219 268.199951171875,337.6108093261719 268.199951171875,350.6999816894531 C268.199951171875,350.6999816894531 268.199951171875,350.6999816894531 268.199951171875,350.6999816894531 " stroke="none" fill="#83CC7C" fill-rule="evenodd" stroke-width="0" fill-opacity="1" />
  <text x="19.14602279663086" y="27.96988296508789" dx="0" dy="0" font-family="Segoe UI" font-size="8.249999754130847pt" fill="#000000" style="text-anchor:start" transform="matrix(0.750000 0.000000 0.000000 0.750000 193.79998779296875 327)">Distance to </text>
  <text x="11.700855255126953" y="42.599884033203125" dx="0" dy="0" font-family="Segoe UI" font-size="8.249999754130847pt" fill="#000000" style="text-anchor:start" transform="matrix(0.750000 0.000000 0.000000 0.750000 193.79998779296875 327)">recreation sites</text>
  <path d="M268.199951171875,350.6999816894531 C268.199951171875,363.78912353515625 251.5449676513672,374.3999938964844 231,374.3999938964844 C210.4550018310547,374.3999938964844 193.79998779296875,363.7891540527344 193.7999725341797,350.70001220703125 L193.7999725341797,350.70001220703125 C193.79995727539062,337.61083984375 210.4549560546875,327 230.99993896484375,327 C251.54493713378906,326.9999694824219 268.199951171875,337.6108093261719 268.199951171875,350.6999816894531 C268.199951171875,350.6999816894531 268.199951171875,350.6999816894531 268.199951171875,350.6999816894531 " stroke="none" fill="none" stroke-width="0.75" stroke-opacity="0" />
  <path d="M268.199951171875,413.0999755859375 C268.199951171875,426.1891174316406 251.5449676513672,436.79998779296875 231,436.79998779296875 C210.4550018310547,436.79998779296875 193.79998779296875,426.18914794921875 193.7999725341797,413.1000061035156 L193.7999725341797,413.1000061035156 C193.79995727539062,400.0108337402344 210.4549560546875,389.3999938964844 230.99993896484375,389.3999938964844 C251.54493713378906,389.39996337890625 268.199951171875,400.01080322265625 268.199951171875,413.0999755859375 C268.199951171875,413.0999755859375 268.199951171875,413.0999755859375 268.199951171875,413.0999755859375 " stroke="none" fill="#E7E7E7" fill-rule="evenodd" stroke-width="0" fill-opacity="1" />
  <text x="5.891189098358154" y="27.96988296508789" dx="0" dy="0" font-family="Segoe UI" font-size="8.249999754130847pt" fill="#000000" style="text-anchor:start" transform="matrix(0.750000 0.000000 0.000000 0.750000 193.79998779296875 389.3999938964844)">Output direction </text>
  <text x="34.70085525512695" y="42.599884033203125" dx="0" dy="0" font-family="Segoe UI" font-size="8.249999754130847pt" fill="#000000" style="text-anchor:start" transform="matrix(0.750000 0.000000 0.000000 0.750000 193.79998779296875 389.3999938964844)">raster</text>
  <path d="M268.199951171875,413.0999755859375 C268.199951171875,426.1891174316406 251.5449676513672,436.79998779296875 231,436.79998779296875 C210.4550018310547,436.79998779296875 193.79998779296875,426.18914794921875 193.7999725341797,413.1000061035156 L193.7999725341797,413.1000061035156 C193.79995727539062,400.0108337402344 210.4549560546875,389.3999938964844 230.99993896484375,389.3999938964844 C251.54493713378906,389.39996337890625 268.199951171875,400.01080322265625 268.199951171875,413.0999755859375 C268.199951171875,413.0999755859375 268.199951171875,413.0999755859375 268.199951171875,413.0999755859375 " stroke="none" fill="none" stroke-width="0.75" stroke-opacity="0" />
  <path d="M268.199951171875,475.5 C268.199951171875,488.5891418457031 251.5449676513672,499.20001220703125 231,499.20001220703125 C210.4550018310547,499.20001220703125 193.79998779296875,488.58917236328125 193.7999725341797,475.5000305175781 L193.7999725341797,475.5000305175781 C193.79995727539062,462.4108581542969 210.4549560546875,451.8000183105469 230.99993896484375,451.8000183105469 C251.54493713378906,451.79998779296875 268.199951171875,462.41082763671875 268.199951171875,475.5 C268.199951171875,475.5 268.199951171875,475.5 268.199951171875,475.5 " stroke="none" fill="#E7E7E7" fill-rule="evenodd" stroke-width="0" fill-opacity="1" />
  <text x="1.287855625152588" y="27.96988296508789" dx="0" dy="0" font-family="Segoe UI" font-size="8.249999754130847pt" fill="#000000" style="text-anchor:start" transform="matrix(0.750000 0.000000 0.000000 0.750000 193.79998779296875 451.8000183105469)">Out back direction </text>
  <text x="34.70085525512695" y="42.599884033203125" dx="0" dy="0" font-family="Segoe UI" font-size="8.249999754130847pt" fill="#000000" style="text-anchor:start" transform="matrix(0.750000 0.000000 0.000000 0.750000 193.79998779296875 451.8000183105469)">raster</text>
  <path d="M268.199951171875,475.5 C268.199951171875,488.5891418457031 251.5449676513672,499.20001220703125 231,499.20001220703125 C210.4550018310547,499.20001220703125 193.79998779296875,488.58917236328125 193.7999725341797,475.5000305175781 L193.7999725341797,475.5000305175781 C193.79995727539062,462.4108581542969 210.4549560546875,451.8000183105469 230.99993896484375,451.8000183105469 C251.54493713378906,451.79998779296875 268.199951171875,462.41082763671875 268.199951171875,475.5 C268.199951171875,475.5 268.199951171875,475.5 268.199951171875,475.5 " stroke="none" fill="none" stroke-width="0.75" stroke-opacity="0" />
  <path d="M112.9039306640625,202.1999969482422 L170.29605102539062,202.1999969482422 L170.29603576660156,202.1999969482422 C174.99261474609375,202.19998168945312 178.7999725341797,206.00732421875 178.7999725341797,210.70391845703125 C178.7999725341797,210.70391845703125 178.7999725341797,210.7039337158203 178.7999725341797,210.7039337158203 L178.79998779296875,210.7039337158203 L178.79998779296875,241.09605407714844 L178.7999725341797,241.09605407714844 C178.7999725341797,245.7926483154297 174.99264526367188,249.59999084472656 170.29605102539062,249.59999084472656 L170.29605102539062,249.59999084472656 L112.9039306640625,249.59999084472656 L112.9039306640625,249.59999084472656 C108.20733642578125,249.59999084472656 104.39999389648438,245.7926483154297 104.39999389648438,241.09605407714844 L104.39999389648438,210.7039337158203 L104.39998626708984,210.7039337158203 C104.39998626708984,206.00733947753906 108.20732116699219,202.1999969482422 112.90391540527344,202.19998168945312 " stroke="none" fill="#F2E279" fill-rule="evenodd" stroke-width="0" fill-opacity="1" />
  <text x="2.1785223484039307" y="27.96988296508789" dx="0" dy="0" font-family="Segoe UI" font-size="8.249999754130847pt" fill="#000000" style="text-anchor:start" transform="matrix(0.750000 0.000000 0.000000 0.750000 104.39999389648438 202.1999969482422)">Euclidean Distance </text>
  <text x="42.36051940917969" y="42.599884033203125" dx="0" dy="0" font-family="Segoe UI" font-size="8.249999754130847pt" fill="#000000" style="text-anchor:start" transform="matrix(0.750000 0.000000 0.000000 0.750000 104.39999389648438 202.1999969482422)">(2)</text>
  <path d="M112.9039306640625,202.1999969482422 L170.29605102539062,202.1999969482422 L170.29603576660156,202.1999969482422 C174.99261474609375,202.19998168945312 178.7999725341797,206.00732421875 178.7999725341797,210.70391845703125 C178.7999725341797,210.70391845703125 178.7999725341797,210.7039337158203 178.7999725341797,210.7039337158203 L178.79998779296875,210.7039337158203 L178.79998779296875,241.09605407714844 L178.7999725341797,241.09605407714844 C178.7999725341797,245.7926483154297 174.99264526367188,249.59999084472656 170.29605102539062,249.59999084472656 L170.29605102539062,249.59999084472656 L112.9039306640625,249.59999084472656 L112.9039306640625,249.59999084472656 C108.20733642578125,249.59999084472656 104.39999389648438,245.7926483154297 104.39999389648438,241.09605407714844 L104.39999389648438,210.7039337158203 L104.39998626708984,210.7039337158203 C104.39998626708984,206.00733947753906 108.20732116699219,202.1999969482422 112.90391540527344,202.19998168945312 " stroke="none" fill="none" stroke-width="0.75" stroke-opacity="0" />
  <path d="M268.199951171875,163.49998474121094 C268.199951171875,176.58914184570312 251.5449676513672,187.1999969482422 231,187.1999969482422 C210.4550018310547,187.1999969482422 193.79998779296875,176.5891571044922 193.7999725341797,163.50001525878906 L193.7999725341797,163.50001525878906 C193.79995727539062,150.41085815429688 210.4549560546875,139.8000030517578 230.99993896484375,139.8000030517578 C251.54493713378906,139.79998779296875 268.199951171875,150.41082763671875 268.199951171875,163.5 C268.199951171875,163.5 268.199951171875,163.5 268.199951171875,163.5 " stroke="none" fill="#83CC7C" fill-rule="evenodd" stroke-width="0" fill-opacity="1" />
  <text x="19.14602279663086" y="27.96988296508789" dx="0" dy="0" font-family="Segoe UI" font-size="8.249999754130847pt" fill="#000000" style="text-anchor:start" transform="matrix(0.750000 0.000000 0.000000 0.750000 193.79998779296875 139.8000030517578)">Distance to </text>
  <text x="29.876190185546875" y="42.599884033203125" dx="0" dy="0" font-family="Segoe UI" font-size="8.249999754130847pt" fill="#000000" style="text-anchor:start" transform="matrix(0.750000 0.000000 0.000000 0.750000 193.79998779296875 139.8000030517578)">schools</text>
  <path d="M268.199951171875,163.49998474121094 C268.199951171875,176.58914184570312 251.5449676513672,187.1999969482422 231,187.1999969482422 C210.4550018310547,187.1999969482422 193.79998779296875,176.5891571044922 193.7999725341797,163.50001525878906 L193.7999725341797,163.50001525878906 C193.79995727539062,150.41085815429688 210.4549560546875,139.8000030517578 230.99993896484375,139.8000030517578 C251.54493713378906,139.79998779296875 268.199951171875,150.41082763671875 268.199951171875,163.5 C268.199951171875,163.5 268.199951171875,163.5 268.199951171875,163.5 " stroke="none" fill="none" stroke-width="0.75" stroke-opacity="0" />
  <path d="M268.199951171875,225.8999786376953 C268.199951171875,238.9891357421875 251.5449676513672,249.59999084472656 231,249.59999084472656 C210.4550018310547,249.59999084472656 193.79998779296875,238.98915100097656 193.7999725341797,225.90000915527344 L193.7999725341797,225.90000915527344 C193.79995727539062,212.81085205078125 210.4549560546875,202.1999969482422 230.99993896484375,202.1999969482422 C251.54493713378906,202.19998168945312 268.199951171875,212.81082153320312 268.199951171875,225.89999389648438 C268.199951171875,225.89999389648438 268.199951171875,225.89999389648438 268.199951171875,225.89999389648438 " stroke="none" fill="#E7E7E7" fill-rule="evenodd" stroke-width="0" fill-opacity="1" />
  <text x="5.891189098358154" y="27.96988296508789" dx="0" dy="0" font-family="Segoe UI" font-size="8.249999754130847pt" fill="#000000" style="text-anchor:start" transform="matrix(0.750000 0.000000 0.000000 0.750000 193.79998779296875 202.1999969482422)">Output direction </text>
  <text x="26.907522201538086" y="42.599884033203125" dx="0" dy="0" font-family="Segoe UI" font-size="8.249999754130847pt" fill="#000000" style="text-anchor:start" transform="matrix(0.750000 0.000000 0.000000 0.750000 193.79998779296875 202.1999969482422)">raster (2)</text>
  <path d="M268.199951171875,225.8999786376953 C268.199951171875,238.9891357421875 251.5449676513672,249.59999084472656 231,249.59999084472656 C210.4550018310547,249.59999084472656 193.79998779296875,238.98915100097656 193.7999725341797,225.90000915527344 L193.7999725341797,225.90000915527344 C193.79995727539062,212.81085205078125 210.4549560546875,202.1999969482422 230.99993896484375,202.1999969482422 C251.54493713378906,202.19998168945312 268.199951171875,212.81082153320312 268.199951171875,225.89999389648438 C268.199951171875,225.89999389648438 268.199951171875,225.89999389648438 268.199951171875,225.89999389648438 " stroke="none" fill="none" stroke-width="0.75" stroke-opacity="0" />
  <path d="M268.199951171875,288.29998779296875 C268.199951171875,301.3891296386719 251.5449676513672,312 231,312 C210.4550018310547,312 193.79998779296875,301.38916015625 193.7999725341797,288.3000183105469 L193.7999725341797,288.3000183105469 C193.79995727539062,275.2108459472656 210.4549560546875,264.6000061035156 230.99993896484375,264.6000061035156 C251.54493713378906,264.5999755859375 268.199951171875,275.2108154296875 268.199951171875,288.29998779296875 C268.199951171875,288.29998779296875 268.199951171875,288.29998779296875 268.199951171875,288.29998779296875 " stroke="none" fill="#E7E7E7" fill-rule="evenodd" stroke-width="0" fill-opacity="1" />
  <text x="1.287855625152588" y="27.96988296508789" dx="0" dy="0" font-family="Segoe UI" font-size="8.249999754130847pt" fill="#000000" style="text-anchor:start" transform="matrix(0.750000 0.000000 0.000000 0.750000 193.79998779296875 264.6000061035156)">Out back direction </text>
  <text x="26.907522201538086" y="42.599884033203125" dx="0" dy="0" font-family="Segoe UI" font-size="8.249999754130847pt" fill="#000000" style="text-anchor:start" transform="matrix(0.750000 0.000000 0.000000 0.750000 193.79998779296875 264.6000061035156)">raster (2)</text>
  <path d="M268.199951171875,288.29998779296875 C268.199951171875,301.3891296386719 251.5449676513672,312 231,312 C210.4550018310547,312 193.79998779296875,301.38916015625 193.7999725341797,288.3000183105469 L193.7999725341797,288.3000183105469 C193.79995727539062,275.2108459472656 210.4549560546875,264.6000061035156 230.99993896484375,264.6000061035156 C251.54493713378906,264.5999755859375 268.199951171875,275.2108154296875 268.199951171875,288.29998779296875 C268.199951171875,288.29998779296875 268.199951171875,288.29998779296875 268.199951171875,288.29998779296875 " stroke="none" fill="none" stroke-width="0.75" stroke-opacity="0" />
  <path d="M291.70391845703125,15 L349.0960388183594,15 L349.09600830078125,15 C353.7926025390625,14.999992370605469 357.5999450683594,18.807327270507812 357.5999450683594,23.50393295288086 C357.5999450683594,23.503934860229492 357.5999450683594,23.503936767578125 357.5999450683594,23.503938674926758 L357.5999755859375,23.503936767578125 L357.5999755859375,53.89606475830078 L357.5999450683594,53.89605712890625 C357.5999450683594,58.5926513671875 353.7926330566406,62.399993896484375 349.0960388183594,62.39999771118164 L349.0960388183594,62.39999771118164 L291.70391845703125,62.39999771118164 L291.70391845703125,62.39999771118164 C287.00732421875,62.39999771118164 283.1999816894531,58.59265899658203 283.1999816894531,53.89606475830078 L283.1999816894531,23.503936767578125 L283.199951171875,23.50394058227539 C283.199951171875,18.80734634399414 287.0072937011719,15.00000286102295 291.7038879394531,14.999999046325684 " stroke="none" fill="#F2E279" fill-rule="evenodd" stroke-width="0" fill-opacity="1" />
  <text x="24.12202262878418" y="35.284881591796875" dx="0" dy="0" font-family="Segoe UI" font-size="8.249999754130847pt" fill="#000000" style="text-anchor:start" transform="matrix(0.750000 0.000000 0.000000 0.750000 283.1999816894531 15)">Reclassify</text>
  <path d="M291.70391845703125,15 L349.0960388183594,15 L349.09600830078125,15 C353.7926025390625,14.999992370605469 357.5999450683594,18.807327270507812 357.5999450683594,23.50393295288086 C357.5999450683594,23.503934860229492 357.5999450683594,23.503936767578125 357.5999450683594,23.503938674926758 L357.5999755859375,23.503936767578125 L357.5999755859375,53.89606475830078 L357.5999450683594,53.89605712890625 C357.5999450683594,58.5926513671875 353.7926330566406,62.399993896484375 349.0960388183594,62.39999771118164 L349.0960388183594,62.39999771118164 L291.70391845703125,62.39999771118164 L291.70391845703125,62.39999771118164 C287.00732421875,62.39999771118164 283.1999816894531,58.59265899658203 283.1999816894531,53.89606475830078 L283.1999816894531,23.503936767578125 L283.199951171875,23.50394058227539 C283.199951171875,18.80734634399414 287.0072937011719,15.00000286102295 291.7038879394531,14.999999046325684 " stroke="none" fill="none" stroke-width="0.75" stroke-opacity="0" />
  <path d="M446.99993896484375,38.69999313354492 C446.99993896484375,51.78913879394531 430.3449401855469,62.399993896484375 409.79998779296875,62.39999771118164 C389.2549743652344,62.400001525878906 372.5999755859375,51.78915786743164 372.5999450683594,38.70001220703125 L372.5999450683594,38.700016021728516 C372.5999450683594,25.610868453979492 389.25494384765625,15.000008583068848 409.7999267578125,15 C430.34490966796875,14.99998950958252 446.99993896484375,25.61083221435547 446.99993896484375,38.69999694824219 C446.99993896484375,38.69999694824219 446.99993896484375,38.69999694824219 446.99993896484375,38.69999694824219 " stroke="none" fill="#83CC7C" fill-rule="evenodd" stroke-width="0" fill-opacity="1" />
  <text x="8.62868881225586" y="35.284881591796875" dx="0" dy="0" font-family="Segoe UI" font-size="8.249999754130847pt" fill="#000000" style="text-anchor:start" transform="matrix(0.750000 0.000000 0.000000 0.750000 372.5999755859375 15)">Reclassed Slope</text>
  <path d="M446.99993896484375,38.69999313354492 C446.99993896484375,51.78913879394531 430.3449401855469,62.399993896484375 409.79998779296875,62.39999771118164 C389.2549743652344,62.400001525878906 372.5999755859375,51.78915786743164 372.5999450683594,38.70001220703125 L372.5999450683594,38.700016021728516 C372.5999450683594,25.610868453979492 389.25494384765625,15.000008583068848 409.7999267578125,15 C430.34490966796875,14.99998950958252 446.99993896484375,25.61083221435547 446.99993896484375,38.69999694824219 C446.99993896484375,38.69999694824219 446.99993896484375,38.69999694824219 446.99993896484375,38.69999694824219 " stroke="none" fill="none" stroke-width="0.75" stroke-opacity="0" />
  <path d="M291.70391845703125,327 L349.0960388183594,327 L349.09600830078125,327 C353.7926025390625,326.9999694824219 357.5999450683594,330.80731201171875 357.5999450683594,335.50390625 C357.5999450683594,335.50390625 357.5999450683594,335.5039367675781 357.5999450683594,335.5039367675781 L357.5999755859375,335.5039367675781 L357.5999755859375,365.89605712890625 L357.5999450683594,365.89605712890625 C357.5999450683594,370.5926513671875 353.7926330566406,374.3999938964844 349.0960388183594,374.3999938964844 L349.0960388183594,374.3999938964844 L291.70391845703125,374.3999938964844 L291.70391845703125,374.3999938964844 C287.00732421875,374.3999938964844 283.1999816894531,370.5926513671875 283.1999816894531,365.89605712890625 L283.1999816894531,335.5039367675781 L283.199951171875,335.5039367675781 C283.199951171875,330.8073425292969 287.0072937011719,327 291.7038879394531,326.9999694824219 " stroke="none" fill="#F2E279" fill-rule="evenodd" stroke-width="0" fill-opacity="1" />
  <text x="16.332021713256836" y="35.284881591796875" dx="0" dy="0" font-family="Segoe UI" font-size="8.249999754130847pt" fill="#000000" style="text-anchor:start" transform="matrix(0.750000 0.000000 0.000000 0.750000 283.1999816894531 327)">Reclassify (2)</text>
  <path d="M291.70391845703125,327 L349.0960388183594,327 L349.09600830078125,327 C353.7926025390625,326.9999694824219 357.5999450683594,330.80731201171875 357.5999450683594,335.50390625 C357.5999450683594,335.50390625 357.5999450683594,335.5039367675781 357.5999450683594,335.5039367675781 L357.5999755859375,335.5039367675781 L357.5999755859375,365.89605712890625 L357.5999450683594,365.89605712890625 C357.5999450683594,370.5926513671875 353.7926330566406,374.3999938964844 349.0960388183594,374.3999938964844 L349.0960388183594,374.3999938964844 L291.70391845703125,374.3999938964844 L291.70391845703125,374.3999938964844 C287.00732421875,374.3999938964844 283.1999816894531,370.5926513671875 283.1999816894531,365.89605712890625 L283.1999816894531,335.5039367675781 L283.199951171875,335.5039367675781 C283.199951171875,330.8073425292969 287.0072937011719,327 291.7038879394531,326.9999694824219 " stroke="none" fill="none" stroke-width="0.75" stroke-opacity="0" />
  <path d="M446.99993896484375,288.29998779296875 C446.99993896484375,301.3891296386719 430.3449401855469,312 409.79998779296875,312 C389.2549743652344,312 372.5999755859375,301.38916015625 372.5999450683594,288.3000183105469 L372.5999450683594,288.3000183105469 C372.5999450683594,275.2108459472656 389.25494384765625,264.6000061035156 409.7999267578125,264.6000061035156 C430.34490966796875,264.5999755859375 446.99993896484375,275.2108154296875 446.99993896484375,288.29998779296875 C446.99993896484375,288.29998779296875 446.99993896484375,288.29998779296875 446.99993896484375,288.29998779296875 " stroke="none" fill="#83CC7C" fill-rule="evenodd" stroke-width="0" fill-opacity="1" />
  <text x="2.34535551071167" y="35.284881591796875" dx="0" dy="0" font-family="Segoe UI" font-size="8.249999754130847pt" fill="#000000" style="text-anchor:start" transform="matrix(0.750000 0.000000 0.000000 0.750000 372.5999755859375 264.6000061035156)">Reclassed RecSites</text>
  <path d="M446.99993896484375,288.29998779296875 C446.99993896484375,301.3891296386719 430.3449401855469,312 409.79998779296875,312 C389.2549743652344,312 372.5999755859375,301.38916015625 372.5999450683594,288.3000183105469 L372.5999450683594,288.3000183105469 C372.5999450683594,275.2108459472656 389.25494384765625,264.6000061035156 409.7999267578125,264.6000061035156 C430.34490966796875,264.5999755859375 446.99993896484375,275.2108154296875 446.99993896484375,288.29998779296875 C446.99993896484375,288.29998779296875 446.99993896484375,288.29998779296875 446.99993896484375,288.29998779296875 " stroke="none" fill="none" stroke-width="0.75" stroke-opacity="0" />
  <path d="M291.70391845703125,139.8000030517578 L349.0960388183594,139.8000030517578 L349.09600830078125,139.8000030517578 C353.7926025390625,139.79998779296875 357.5999450683594,143.60733032226562 357.5999450683594,148.30392456054688 C357.5999450683594,148.30392456054688 357.5999450683594,148.30393981933594 357.5999450683594,148.30393981933594 L357.5999755859375,148.30393981933594 L357.5999755859375,178.69606018066406 L357.5999450683594,178.69606018066406 C357.5999450683594,183.3926544189453 353.7926330566406,187.1999969482422 349.0960388183594,187.1999969482422 L349.0960388183594,187.1999969482422 L291.70391845703125,187.1999969482422 L291.70391845703125,187.1999969482422 C287.00732421875,187.1999969482422 283.1999816894531,183.3926544189453 283.1999816894531,178.69606018066406 L283.1999816894531,148.30393981933594 L283.199951171875,148.30393981933594 C283.199951171875,143.6073455810547 287.0072937011719,139.8000030517578 291.7038879394531,139.79998779296875 " stroke="none" fill="#F2E279" fill-rule="evenodd" stroke-width="0" fill-opacity="1" />
  <text x="16.332021713256836" y="35.284881591796875" dx="0" dy="0" font-family="Segoe UI" font-size="8.249999754130847pt" fill="#000000" style="text-anchor:start" transform="matrix(0.750000 0.000000 0.000000 0.750000 283.1999816894531 139.8000030517578)">Reclassify (3)</text>
  <path d="M291.70391845703125,139.8000030517578 L349.0960388183594,139.8000030517578 L349.09600830078125,139.8000030517578 C353.7926025390625,139.79998779296875 357.5999450683594,143.60733032226562 357.5999450683594,148.30392456054688 C357.5999450683594,148.30392456054688 357.5999450683594,148.30393981933594 357.5999450683594,148.30393981933594 L357.5999755859375,148.30393981933594 L357.5999755859375,178.69606018066406 L357.5999450683594,178.69606018066406 C357.5999450683594,183.3926544189453 353.7926330566406,187.1999969482422 349.0960388183594,187.1999969482422 L349.0960388183594,187.1999969482422 L291.70391845703125,187.1999969482422 L291.70391845703125,187.1999969482422 C287.00732421875,187.1999969482422 283.1999816894531,183.3926544189453 283.1999816894531,178.69606018066406 L283.1999816894531,148.30393981933594 L283.199951171875,148.30393981933594 C283.199951171875,143.6073455810547 287.0072937011719,139.8000030517578 291.7038879394531,139.79998779296875 " stroke="none" fill="none" stroke-width="0.75" stroke-opacity="0" />
  <path d="M446.99993896484375,163.49998474121094 C446.99993896484375,176.58914184570312 430.3449401855469,187.1999969482422 409.79998779296875,187.1999969482422 C389.2549743652344,187.1999969482422 372.5999755859375,176.5891571044922 372.5999450683594,163.50001525878906 L372.5999450683594,163.50001525878906 C372.5999450683594,150.41085815429688 389.25494384765625,139.8000030517578 409.7999267578125,139.8000030517578 C430.34490966796875,139.79998779296875 446.99993896484375,150.41082763671875 446.99993896484375,163.5 C446.99993896484375,163.5 446.99993896484375,163.5 446.99993896484375,163.5 " stroke="none" fill="#83CC7C" fill-rule="evenodd" stroke-width="0" fill-opacity="1" />
  <text x="3.528688907623291" y="35.284881591796875" dx="0" dy="0" font-family="Segoe UI" font-size="8.249999754130847pt" fill="#000000" style="text-anchor:start" transform="matrix(0.750000 0.000000 0.000000 0.750000 372.5999755859375 139.8000030517578)">Reclassed Schools</text>
  <path d="M446.99993896484375,163.49998474121094 C446.99993896484375,176.58914184570312 430.3449401855469,187.1999969482422 409.79998779296875,187.1999969482422 C389.2549743652344,187.1999969482422 372.5999755859375,176.5891571044922 372.5999450683594,163.50001525878906 L372.5999450683594,163.50001525878906 C372.5999450683594,150.41085815429688 389.25494384765625,139.8000030517578 409.7999267578125,139.8000030517578 C430.34490966796875,139.79998779296875 446.99993896484375,150.41082763671875 446.99993896484375,163.5 C446.99993896484375,163.5 446.99993896484375,163.5 446.99993896484375,163.5 " stroke="none" fill="none" stroke-width="0.75" stroke-opacity="0" />
  <path d="M470.5039367675781,77.4000015258789 L527.8960571289062,77.4000015258789 L527.89599609375,77.4000015258789 C532.5925903320312,77.39999389648438 536.3999633789062,81.20732879638672 536.3999633789062,85.9039306640625 C536.3999633789062,85.9039306640625 536.3999633789062,85.90393829345703 536.3999633789062,85.90393829345703 L536.3999633789062,85.90393829345703 L536.3999633789062,116.29606628417969 L536.3999633789062,116.29605865478516 C536.3999633789062,120.9926528930664 532.5926513671875,124.79999542236328 527.8960571289062,124.79999542236328 L527.8960571289062,124.79999542236328 L470.5039367675781,124.79999542236328 L470.5039367675781,124.79999542236328 C465.8073425292969,124.79999542236328 462,120.99266052246094 462,116.29606628417969 L462,85.90393829345703 L461.9999694824219,85.90393829345703 C461.9999694824219,81.20734405517578 465.80731201171875,77.4000015258789 470.50390625,77.39999389648438 " stroke="none" fill="#F2E279" fill-rule="evenodd" stroke-width="0" fill-opacity="1" />
  <text x="2.0556888580322266" y="35.284881591796875" dx="0" dy="0" font-family="Segoe UI" font-size="8.249999754130847pt" fill="#000000" style="text-anchor:start" transform="matrix(0.750000 0.000000 0.000000 0.750000 462 77.4000015258789)">Weighted Overlay</text>
  <path d="M470.5039367675781,77.4000015258789 L527.8960571289062,77.4000015258789 L527.89599609375,77.4000015258789 C532.5925903320312,77.39999389648438 536.3999633789062,81.20732879638672 536.3999633789062,85.9039306640625 C536.3999633789062,85.9039306640625 536.3999633789062,85.90393829345703 536.3999633789062,85.90393829345703 L536.3999633789062,85.90393829345703 L536.3999633789062,116.29606628417969 L536.3999633789062,116.29605865478516 C536.3999633789062,120.9926528930664 532.5926513671875,124.79999542236328 527.8960571289062,124.79999542236328 L527.8960571289062,124.79999542236328 L470.5039367675781,124.79999542236328 L470.5039367675781,124.79999542236328 C465.8073425292969,124.79999542236328 462,120.99266052246094 462,116.29606628417969 L462,85.90393829345703 L461.9999694824219,85.90393829345703 C461.9999694824219,81.20734405517578 465.80731201171875,77.4000015258789 470.50390625,77.39999389648438 " stroke="none" fill="none" stroke-width="0.75" stroke-opacity="0" />
  <path d="M625.7999267578125,101.09999084472656 C625.7999267578125,114.18914031982422 609.1448974609375,124.79999542236328 588.5999755859375,124.79999542236328 C568.054931640625,124.80000305175781 551.3999633789062,114.18915557861328 551.39990234375,101.10001373291016 L551.39990234375,101.10001373291016 C551.39990234375,88.0108642578125 568.054931640625,77.40000915527344 588.5999145507812,77.4000015258789 C609.1448974609375,77.39998626708984 625.7999267578125,88.01083374023438 625.7999267578125,101.0999984741211 C625.7999267578125,101.0999984741211 625.7999267578125,101.0999984741211 625.7999267578125,101.0999984741211 " stroke="none" fill="#83CC7C" fill-rule="evenodd" stroke-width="0" fill-opacity="1" />
  <text x="12.941021919250488" y="35.284881591796875" dx="0" dy="0" font-family="Segoe UI" font-size="8.249999754130847pt" fill="#000000" style="text-anchor:start" transform="matrix(0.750000 0.000000 0.000000 0.750000 551.3999633789062 77.4000015258789)">Suitable Areas</text>
  <path d="M625.7999267578125,101.09999084472656 C625.7999267578125,114.18914031982422 609.1448974609375,124.79999542236328 588.5999755859375,124.79999542236328 C568.054931640625,124.80000305175781 551.3999633789062,114.18915557861328 551.39990234375,101.10001373291016 L551.39990234375,101.10001373291016 C551.39990234375,88.0108642578125 568.054931640625,77.40000915527344 588.5999145507812,77.4000015258789 C609.1448974609375,77.39998626708984 625.7999267578125,88.01083374023438 625.7999267578125,101.0999984741211 C625.7999267578125,101.0999984741211 625.7999267578125,101.0999984741211 625.7999267578125,101.0999984741211 " stroke="none" fill="none" stroke-width="0.75" stroke-opacity="0" />
  <path d="M446.99993896484375,101.09999084472656 C446.99993896484375,114.18914031982422 430.3449401855469,124.79999542236328 409.79998779296875,124.79999542236328 C389.2549743652344,124.80000305175781 372.5999755859375,114.18915557861328 372.5999450683594,101.10001373291016 L372.5999450683594,101.10001373291016 C372.5999450683594,88.0108642578125 389.25494384765625,77.40000915527344 409.7999267578125,77.4000015258789 C430.34490966796875,77.39998626708984 446.99993896484375,88.01083374023438 446.99993896484375,101.0999984741211 C446.99993896484375,101.0999984741211 446.99993896484375,101.0999984741211 446.99993896484375,101.0999984741211 " stroke="none" fill="#70AECC" fill-rule="evenodd" stroke-width="0" fill-opacity="1" />
  <text x="30.170522689819336" y="35.284881591796875" dx="0" dy="0" font-family="Segoe UI" font-size="8.249999754130847pt" fill="#000000" style="text-anchor:start" transform="matrix(0.750000 0.000000 0.000000 0.750000 372.5999755859375 77.4000015258789)">landuse</text>
  <path d="M446.99993896484375,101.09999084472656 C446.99993896484375,114.18914031982422 430.3449401855469,124.79999542236328 409.79998779296875,124.79999542236328 C389.2549743652344,124.80000305175781 372.5999755859375,114.18915557861328 372.5999450683594,101.10001373291016 L372.5999450683594,101.10001373291016 C372.5999450683594,88.0108642578125 389.25494384765625,77.40000915527344 409.7999267578125,77.4000015258789 C430.34490966796875,77.39998626708984 446.99993896484375,88.01083374023438 446.99993896484375,101.0999984741211 C446.99993896484375,101.0999984741211 446.99993896484375,101.0999984741211 446.99993896484375,101.0999984741211 " stroke="none" fill="none" stroke-width="0.75" stroke-opacity="0" />
</svg>